<?xml version="1.0" encoding="utf-8"?>
<!-- Generator: Adobe Illustrator 22.1.0, SVG Export Plug-In . SVG Version: 6.00 Build 0)  -->
<svg version="1.1" id="Calque_1" xmlns="http://www.w3.org/2000/svg" xmlns:xlink="http://www.w3.org/1999/xlink" x="0px" y="0px"
	 viewBox="0 0 882 834" style="enable-background:new 0 0 882 834;" xml:space="preserve">
<style type="text/css">
	.st0{fill:#FFFFFF;}
</style>
<circle class="st0" cx="441" cy="417" r="344"/>
<g>
	<g>
		<path class="st0" d="M212.6,658.1c0-146.8,0-293.7,0-440.5c156.3,0,312.7,0,469,0c0,146.8,0,293.7,0,440.5
			C525.3,658.1,369,658.1,212.6,658.1z M266.5,573.3c0-89.5,0-178.7,0-268c3.2-0.7,5.6-2.4,5.7-6c0-3.6-2.4-5.3-5.8-6.1
			c0-9,0-17.9,0-26.9c0-12.4,7.1-19.5,19.4-19.5c95.9,0,191.7,0,287.6,0c0.9,0,1.7,0,2.6,0c8.8,0.3,16.5,7.4,16.8,16.2
			c0.3,10,0.1,20.1,0.1,30.2c-3.2,0.9-5.7,2.5-5.8,6.1c0,3.6,2.4,5.3,5.8,6.1c0,1.2,0,2.4,0,3.6c0,24.8,0,49.7,0,74.5
			c0,39,0,77.9,0,116.9c0,1.2,0,2.8,0.7,3.6c3.2,3.7,6.7,7.2,10.1,10.7c0.3-0.2,0.5-0.3,0.8-0.5c0-0.9,0-1.9,0-2.8
			c0-82,0-164.1,0-246.1c0-17.5-12.7-30.1-30.3-30.1c-96.4,0-192.8,0-289.2,0c-17.6,0-30.3,12.6-30.3,30.1c0,105.4,0,210.7,0,316.1
			c0,1.1,0,2.3,0,3.3c93.3,0,186.2,0,280,0c-3.5-3.4-6.6-6.1-9.4-9.1c-1.7-1.8-3.5-2.4-5.9-2.4c-82.8,0.1-165.6,0-248.4,0
			C269.7,573.3,268.3,573.3,266.5,573.3z M449,429.2c0.3,1.1,0.3,1.4,0.4,1.7c9.2,23.8,18.3,47.7,27.5,71.5c0.5,1.3,1.5,2.6,2.6,3.6
			c16.8,16.8,33.6,33.6,50.4,50.4c25.8,25.8,51.6,51.6,77.4,77.4c6.3,6.3,13.8,9.6,22.6,9.3c9.3-0.3,16.4-4.8,22.8-11.4
			c13.5-13.9,13.6-31.2-0.1-45c-42.2-42.2-84.4-84.4-126.7-126.6c-1.5-1.5-3.4-2.7-5.3-3.5c-17-6.6-34-13.1-51-19.6
			C462.9,434.6,456.2,432,449,429.2z M528.6,357.8c-54.5,0-108.7,0-162.9,0c0,3.9,0,7.5,0,11.2c54.4,0,108.6,0,162.9,0
			C528.6,365.3,528.6,361.6,528.6,357.8z M365.7,415.7c54.5,0,108.7,0,162.8,0c0-3.9,0-7.6,0-11.3c-54.4,0-108.5,0-162.8,0
			C365.7,408.2,365.7,411.8,365.7,415.7z M365.7,508.9c30,0,59.8,0,89.9,0c-1.1-3-2.3-5.7-3-8.5c-0.6-2.5-1.9-3-4.3-3
			c-26.4,0.1-52.8,0.1-79.3,0.1c-1,0-2.1,0-3.3,0C365.7,501.5,365.7,505.1,365.7,508.9z M365.8,450.9c0,4.2,0,7.9,0,11.5
			c26.1,0,51.9,0,78.1,0c-1.1-3.1-2.3-5.8-3.1-8.7c-0.6-2.3-1.8-2.9-4.1-2.9c-22.6,0.1-45.3,0.1-67.9,0.1
			C367.8,450.9,366.9,450.9,365.8,450.9z M336.2,354.7c-4.8,0.1-8.5,3.9-8.6,8.7c0,4.9,3.9,8.8,8.8,8.7c4.9-0.1,8.7-4.1,8.6-9
			C344.9,358.3,341,354.6,336.2,354.7z M345.1,409.9c-0.1-4.8-3.9-8.6-8.6-8.6c-4.9,0-8.8,3.9-8.8,8.8c0.1,4.9,4.1,8.7,9,8.6
			C341.4,418.6,345.1,414.7,345.1,409.9z M345.1,456.5c-0.1-4.8-3.9-8.5-8.7-8.5c-4.9,0-8.8,4-8.7,8.9c0.1,4.8,3.9,8.5,8.7,8.5
			C341.3,465.4,345.2,461.4,345.1,456.5z M336.4,494.6c-4.8,0-8.6,3.8-8.7,8.5c-0.1,4.9,3.8,8.9,8.7,8.9c4.8,0,8.6-3.8,8.7-8.5
			C345.2,498.6,341.3,494.6,336.4,494.6z M289.8,305.1c3.1,0,5.8-2.7,5.8-5.8c0-3.2-2.8-6-6-5.9c-3.1,0.1-5.7,2.9-5.6,5.9
			C284,302.5,286.7,305.1,289.8,305.1z M318.9,299.3c0-3.1-2.6-5.8-5.7-5.8c-3.1-0.1-5.8,2.6-5.9,5.6c-0.1,3.2,2.7,6,5.9,6
			C316.2,305,318.9,302.4,318.9,299.3z M342.2,299.4c0.1-3.1-2.5-5.8-5.6-6c-3.1-0.1-5.9,2.4-6,5.5c-0.2,3.2,2.6,6.1,5.8,6.1
			C339.4,305.1,342.1,302.5,342.2,299.4z M365.5,299.3c0-3.1-2.6-5.8-5.7-5.9c-3.1-0.1-5.8,2.5-6,5.6c-0.1,3.2,2.6,6,5.8,6
			C362.8,305.1,365.5,302.4,365.5,299.3z M382.9,293.5c-3.1,0.1-5.7,2.8-5.7,5.9c0,3.1,2.7,5.8,5.8,5.8c3.2,0,6-2.8,5.9-6
			C388.7,296,386,293.4,382.9,293.5z M406.3,293.5c-3.1,0-5.8,2.7-5.8,5.8c0,3.1,2.6,5.8,5.7,5.9c3.2,0.1,6-2.7,6-5.9
			C412.1,296.1,409.4,293.4,406.3,293.5z M435.5,299.2c0-3.1-2.7-5.7-5.8-5.7c-3.1,0-5.8,2.7-5.8,5.7c-0.1,3.2,2.8,6,6,5.9
			C432.9,305,435.5,302.3,435.5,299.2z M453.1,305.1c3.1-0.1,5.7-2.8,5.7-5.8c0-3.2-2.9-5.9-6.1-5.8c-3.1,0.2-5.7,2.9-5.5,6
			C447.3,302.5,450,305.1,453.1,305.1z M482.1,299.3c0-3.1-2.6-5.8-5.7-5.9c-3.1-0.1-5.8,2.5-6,5.6c-0.1,3.2,2.6,6.1,5.8,6
			C479.4,305.1,482.1,302.4,482.1,299.3z M499.5,305.1c3.1,0,5.8-2.6,5.9-5.6c0.1-3.1-2.5-5.8-5.6-6c-3.2-0.1-6.1,2.6-6.1,5.8
			C493.8,302.3,496.4,305,499.5,305.1z M522.8,305.1c3.1,0,5.8-2.6,5.9-5.6c0.1-3.1-2.5-5.8-5.6-6c-3.2-0.1-6.1,2.6-6.1,5.8
			C517.1,302.3,519.8,305,522.8,305.1z M546.1,305.1c3.1,0.1,5.8-2.5,5.9-5.6c0.1-3.1-2.5-5.9-5.5-6c-3.2-0.2-6.1,2.6-6.1,5.8
			C540.4,302.3,543.1,305,546.1,305.1z M569.6,305.1c3.1,0,5.7-2.7,5.8-5.8c0-3.2-2.8-6-6-5.9c-3.1,0.1-5.7,2.9-5.6,5.9
			C563.8,302.5,566.5,305.1,569.6,305.1z"/>
		<path d="M266.5,573.3c1.7,0,3.1,0,4.5,0c82.8,0,165.6,0,248.4,0c2.5,0,4.2,0.6,5.9,2.4c2.8,3,5.8,5.7,9.4,9.1
			c-93.8,0-186.7,0-280,0c0-1.1,0-2.2,0-3.3c0-105.4,0-210.7,0-316.1c0-17.6,12.6-30.1,30.3-30.1c96.4,0,192.8,0,289.2,0
			c17.7,0,30.3,12.6,30.3,30.1c0,82,0,164.1,0,246.1c0,0.9,0,1.9,0,2.8c-0.3,0.2-0.5,0.3-0.8,0.5c-3.4-3.6-6.9-7-10.1-10.7
			c-0.7-0.8-0.7-2.4-0.7-3.6c0-39,0-77.9,0-116.9c0-24.8,0-49.7,0-74.5c0-1.2,0-2.4,0-3.6c-3.3-0.9-5.8-2.5-5.8-6.1
			c0-3.6,2.5-5.2,5.8-6.1c0-10.1,0.2-20.2-0.1-30.2c-0.3-8.8-8-15.9-16.8-16.2c-0.9,0-1.7,0-2.6,0c-95.9,0-191.7,0-287.6,0
			c-12.3,0-19.4,7.1-19.4,19.5c0,9,0,17.9,0,26.9c3.3,0.9,5.8,2.5,5.8,6.1c0,3.6-2.5,5.3-5.7,6C266.5,394.6,266.5,483.7,266.5,573.3
			z"/>
		<path d="M449,429.2c7.3,2.8,14,5.4,20.6,7.9c17,6.5,34,13,51,19.6c1.9,0.8,3.8,2,5.3,3.5c42.3,42.2,84.5,84.4,126.7,126.6
			c13.7,13.7,13.7,31,0.1,45c-6.3,6.5-13.5,11.1-22.8,11.4c-8.9,0.2-16.4-3.1-22.6-9.3c-25.8-25.8-51.6-51.6-77.4-77.4
			c-16.8-16.8-33.6-33.6-50.4-50.4c-1-1-2.1-2.3-2.6-3.6c-9.2-23.8-18.4-47.6-27.5-71.5C449.3,430.6,449.3,430.3,449,429.2z
			 M495,504c29,29,57.8,57.8,86.3,86.3c9.5-9.5,19.3-19.3,28.5-28.5c-28.6-28.6-57.4-57.5-86.2-86.3c-2.7,6.1-7.8,9.5-14.5,11.1
			c-1.1,0.2-2.4,1.5-2.6,2.5C504.8,496.1,501.2,501.3,495,504z M604.7,614.2c9.7-9.7,19.5-19.5,29-28.9c-4.8-4.8-9.8-9.9-14.6-14.7
			c-9.6,9.6-19.4,19.4-29.1,29C595,604.6,600,609.6,604.7,614.2z M514.1,466.7c-10.5-4.1-20.6-8-30.8-11.9c-0.7-0.3-1.8-0.3-2.3,0.2
			c-2.2,2-4.4,4.2-6.4,6.4c-0.4,0.4-0.3,1.6-0.1,2.3c3.7,9.7,7.4,19.3,11.2,28.9c0.3,0.7,1.8,1.4,2.6,1.3c4.2-0.8,6.1-3.8,6.7-7.7
			c0.5-3.3,0.7-6.6,1-10C503.1,475.3,511.8,477.6,514.1,466.7z M613.7,623.4c8.2,9.4,19,10.9,27.2,3.6c2.1-1.9,4.1-3.9,5.9-6
			c7.3-8.4,5.2-21.7-3.9-26.8C633.1,604,623.5,613.6,613.7,623.4z"/>
		<path d="M528.6,357.8c0,3.8,0,7.4,0,11.2c-54.4,0-108.6,0-162.9,0c0-3.8,0-7.4,0-11.2C419.9,357.8,474.1,357.8,528.6,357.8z"/>
		<path d="M365.7,415.7c0-3.9,0-7.5,0-11.3c54.3,0,108.4,0,162.8,0c0,3.6,0,7.4,0,11.3C474.4,415.7,420.1,415.7,365.7,415.7z"/>
		<path d="M365.7,508.9c0-3.8,0-7.5,0-11.4c1.2,0,2.2,0,3.3,0c26.4,0,52.8,0,79.3-0.1c2.4,0,3.7,0.6,4.3,3c0.7,2.8,1.9,5.4,3,8.5
			C425.5,508.9,395.7,508.9,365.7,508.9z"/>
		<path d="M365.8,450.9c1.1,0,2,0,3,0c22.6,0,45.3,0,67.9-0.1c2.3,0,3.5,0.6,4.1,2.9c0.8,2.9,2,5.6,3.1,8.7c-26.2,0-52,0-78.1,0
			C365.8,458.7,365.8,455,365.8,450.9z"/>
		<path d="M336.2,354.7c4.8-0.1,8.7,3.6,8.8,8.4c0.2,4.9-3.7,8.9-8.6,9c-4.9,0.1-8.9-3.8-8.8-8.7
			C327.7,358.6,331.5,354.8,336.2,354.7z"/>
		<path d="M345.1,409.9c0.1,4.8-3.7,8.7-8.4,8.8c-4.9,0.1-8.9-3.7-9-8.6c-0.1-4.9,3.9-8.8,8.8-8.8
			C341.2,401.4,345,405.2,345.1,409.9z"/>
		<path d="M345.1,456.5c0.1,4.9-3.8,8.9-8.7,8.9c-4.8,0-8.6-3.8-8.7-8.5c-0.1-4.9,3.8-8.9,8.7-8.9C341.1,448,345,451.8,345.1,456.5z
			"/>
		<path d="M336.4,494.6c4.9,0,8.8,4,8.7,8.9c-0.1,4.8-3.9,8.5-8.7,8.5c-4.9,0-8.8-4-8.7-8.9C327.8,498.4,331.6,494.6,336.4,494.6z"
			/>
		<path d="M289.8,305.1c-3.1,0-5.8-2.6-5.8-5.7c-0.1-3.1,2.5-5.8,5.6-5.9c3.2-0.1,6,2.7,6,5.9C295.5,302.4,292.8,305.1,289.8,305.1z
			"/>
		<path d="M318.9,299.3c0,3.1-2.7,5.8-5.7,5.8c-3.2,0-6-2.8-5.9-6c0.1-3.1,2.8-5.7,5.9-5.6C316.2,293.5,318.9,296.2,318.9,299.3z"/>
		<path d="M342.2,299.4c-0.1,3.1-2.8,5.7-5.9,5.7c-3.2,0-5.9-2.9-5.8-6.1c0.2-3.1,3-5.6,6-5.5C339.7,293.6,342.3,296.3,342.2,299.4z
			"/>
		<path d="M365.5,299.3c0,3.1-2.7,5.7-5.8,5.8c-3.2,0-6-2.8-5.8-6c0.1-3.1,2.9-5.7,6-5.6C362.9,293.5,365.5,296.2,365.5,299.3z"/>
		<path d="M382.9,293.5c3.1-0.1,5.8,2.5,5.9,5.6c0.1,3.2-2.7,6-5.9,6c-3.1,0-5.8-2.7-5.8-5.8C377.2,296.2,379.8,293.5,382.9,293.5z"
			/>
		<path d="M406.3,293.5c3.1,0,5.8,2.6,5.8,5.7c0.1,3.2-2.8,6-6,5.9c-3.1-0.1-5.7-2.8-5.7-5.9C400.6,296.1,403.2,293.5,406.3,293.5z"
			/>
		<path d="M435.5,299.2c0,3.1-2.6,5.8-5.7,5.9c-3.2,0.1-6-2.7-6-5.9c0.1-3.1,2.8-5.7,5.8-5.7C432.7,293.5,435.4,296.1,435.5,299.2z"
			/>
		<path d="M453.1,305.1c-3.1,0.1-5.8-2.5-5.9-5.6c-0.1-3.1,2.5-5.9,5.5-6c3.2-0.2,6.1,2.6,6.1,5.8
			C458.8,302.3,456.2,305,453.1,305.1z"/>
		<path d="M482.1,299.3c0,3.1-2.7,5.7-5.8,5.7c-3.2,0-6-2.9-5.8-6c0.1-3.1,2.9-5.7,6-5.6C479.5,293.5,482.2,296.3,482.1,299.3z"/>
		<path d="M499.5,305.1c-3.1,0-5.7-2.7-5.7-5.8c0-3.2,2.9-6,6.1-5.8c3.1,0.1,5.7,2.9,5.6,6C505.3,302.5,502.6,305.1,499.5,305.1z"/>
		<path d="M522.8,305.1c-3.1,0-5.7-2.7-5.7-5.8c0-3.2,2.9-6,6.1-5.8c3.1,0.1,5.7,2.9,5.6,6C528.7,302.5,525.9,305.1,522.8,305.1z"/>
		<path d="M546.1,305.1c-3.1-0.1-5.7-2.8-5.7-5.8c0-3.2,2.9-5.9,6.1-5.8c3.1,0.2,5.7,2.9,5.5,6C552,302.5,549.2,305.1,546.1,305.1z"
			/>
		<path d="M569.6,305.1c-3.1,0-5.8-2.6-5.9-5.7c-0.1-3.1,2.5-5.8,5.6-5.9c3.2-0.1,6,2.6,6,5.9C575.4,302.4,572.7,305.1,569.6,305.1z
			"/>
		<path class="st0" d="M495,504c6.2-2.8,9.8-8,11.4-14.8c0.2-1,1.6-2.3,2.6-2.5c6.7-1.6,11.8-5.1,14.5-11.1
			c28.8,28.8,57.6,57.7,86.2,86.3c-9.2,9.2-18.9,18.9-28.5,28.5C552.8,561.9,524,533.1,495,504z"/>
		<path class="st0" d="M604.7,614.2c-4.7-4.7-9.7-9.7-14.6-14.6c9.7-9.7,19.5-19.4,29.1-29c4.8,4.8,9.8,9.9,14.6,14.7
			C624.2,594.8,614.4,604.5,604.7,614.2z"/>
		<path class="st0" d="M514.1,466.7c-2.3,10.9-11,8.6-18.1,9.5c-0.3,3.4-0.5,6.7-1,10c-0.6,3.9-2.6,6.9-6.7,7.7
			c-0.8,0.1-2.3-0.6-2.6-1.3c-3.8-9.6-7.5-19.3-11.2-28.9c-0.3-0.7-0.3-1.9,0.1-2.3c2-2.2,4.2-4.4,6.4-6.4c0.5-0.4,1.6-0.4,2.3-0.2
			C493.4,458.7,503.6,462.7,514.1,466.7z"/>
		<path class="st0" d="M613.7,623.4c9.8-9.8,19.5-19.5,29.2-29.2c9.1,5.1,11.2,18.4,3.9,26.8c-1.8,2.1-3.8,4.1-5.9,6
			C632.6,634.3,621.8,632.9,613.7,623.4z"/>
	</g>
</g>
</svg>
