<?xml version="1.0" encoding="utf-8"?>
<!-- Generator: Adobe Illustrator 22.1.0, SVG Export Plug-In . SVG Version: 6.00 Build 0)  -->
<svg version="1.1" id="Calque_1" xmlns="http://www.w3.org/2000/svg" xmlns:xlink="http://www.w3.org/1999/xlink" x="0px" y="0px"
	 viewBox="0 0 709 706" style="enable-background:new 0 0 709 706;" xml:space="preserve">
<style type="text/css">
	.st0{fill:#FFFFFF;}
	.st1{fill:#010101;}
	.st2{fill:#FEFEFE;}
	.st3{fill:#070707;}
	.st4{fill:#040404;}
</style>
<circle class="st0" cx="357" cy="353" r="344"/>
<g>
	<path class="st1" d="M482.8,168c-15.9,15.8-30.4,31.4-46.3,45.5c-10.3,9.1-14.3,17.7-8.6,30.9c3.2,7.4,4.3,15.7,6.1,23.7
		c0.5,2.2,1.4,3.2,3.7,3.7c12.7,3,25.4,6.1,37.9,9.6c3.5,1,5-0.7,7-2.7c16.7-16.7,33.5-33.4,50.1-50.2c1.5-1.5,2.6-3.5,4.6-6.3
		c6.5,17.5,9.6,33.6,7.9,50.2c-5,47.7-37.9,83.6-84.8,92.8c-13.2,2.6-26.5,2.2-39.5-1.3c-3.5-0.9-5.4-0.1-7.6,2.2
		c-36.3,36.4-72.6,72.8-109.1,109c-3.3,3.2-4.6,6.6-5.2,11.1c-4,32.8-32.2,59.1-65,61c-33.6,2-64.6-20.1-73.1-52.2
		c-11.3-42.4,17.9-84.4,61.6-88.6c2.5-0.2,4.3-1.1,6.1-2.8c37.3-37.4,74.6-74.7,112-112c1.9-1.9,2.2-3.6,1.6-6.2
		c-16.1-68.8,42.3-133.5,112.4-124.5C463.7,162.2,472.7,164.8,482.8,168z"/>
	<path class="st2" d="M530.2,249c4.3,15.1,2.4,28.7-1.8,42c-15,46.6-62.9,72.4-110.3,59.4c-4-1.1-6.5-0.8-9.7,2.4
		c-38.8,39.1-77.9,78.1-116.9,117c-2.8,2.8-4,5.6-4.1,9.6c-1,29.7-25.9,54.3-55.5,55.2c-31.3,1-57.3-21.8-60.3-52.7
		c-2.9-30,18.2-58.2,48-62.1c10.4-1.3,17.2-5.7,24.1-12.7c36.3-36.7,72.9-73.1,109.5-109.5c2.8-2.8,3.7-5,2.6-9
		c-14.2-52.1,16.4-102.3,69.3-113.6c10.2-2.2,20.5-2.8,32,2.1c-2.1,1.6-4.5,2.9-6.3,4.7c-12.6,12.5-25.1,25.2-37.8,37.6
		c-2.5,2.5-3.3,4.6-2.4,8.1c4.4,16.6,8.5,33.2,12.5,49.9c0.8,3.3,2.2,4.8,5.5,5.6c16.9,4,33.7,8.2,50.4,12.6c3.1,0.8,5,0.2,7.1-2
		C500.4,278.9,514.9,264.4,530.2,249z"/>
	<path class="st1" d="M191.3,476c-3.7-11.8,2.7-18.9,10.2-27c8.2-8.8,16.6-11.8,28.4-11.8c11.3,0,18.9,3.5,26.9,11.2
		c8.6,8.3,11.8,16.7,11.7,28.5c0,11.3-3.5,18.9-11.2,26.9c-8.3,8.6-16.7,11.8-28.5,11.7c-11.3,0-19-3.3-26.9-11.3
		C193.7,496,187.6,488.1,191.3,476z"/>
	<path class="st3" d="M339.1,373c-0.6,4.1-2.6,6.6-6.5,6.6c-3.9,0-6.3-2.3-6.4-6.2c-0.1-4.2,2.4-6.6,6.6-6.5
		C336.8,366.9,338.6,369.6,339.1,373z"/>
	<path class="st3" d="M300.4,411.5c-0.4,4.1-2.4,6.7-6.2,6.8c-4.2,0.1-6.7-2.3-6.6-6.5c0-3.9,2.5-6.2,6.4-6.2
		C297.8,405.5,299.7,408.1,300.4,411.5z"/>
	<path class="st3" d="M374.1,325.6c3.6,0.4,5.9,2.3,6,6.3c0.1,4-2.4,6.4-6.1,6.5c-4,0.1-6.7-2.6-6.6-6.6
		C367.5,328.1,369.8,325.8,374.1,325.6z"/>
	<path class="st3" d="M365,311.6c-0.5,4.5-3,6.9-6.6,6.7c-3.9-0.1-6.7-2.7-6.3-6.9c0.3-3.8,2.7-5.9,6.7-5.8
		C362.9,305.9,364.4,308.5,365,311.6z"/>
	<path class="st3" d="M400.2,347.5c-0.3,3.9-2.5,6.1-6.3,6.2c-3.9,0.1-6.4-2.6-6.5-6.2c-0.1-3.9,2.4-6.7,6.6-6.6
		C398,341.1,400,343.5,400.2,347.5z"/>
	<path class="st4" d="M313.1,399c-3.8-0.5-6.2-2.5-6.2-6.4c0-4.2,2.6-6.5,6.7-6.3c3.8,0.2,6,2.7,5.9,6.6
		C319.4,396.7,316.9,398.7,313.1,399z"/>
	<path class="st2" d="M255.1,475.4c0.1,6.7,0.2,11.6-4.3,16.6c-7.1,7.9-14.7,11.7-25.4,10.4c-4.5-0.5-7.7-1.6-11.3-4.5
		c-8.5-6.8-12-14.9-10.7-25.8c0.5-4.5,1.9-7.7,4.7-11.3c6.8-8.8,15.2-11.6,25.9-10.5c4.4,0.4,7.7,1.3,10.7,4.6
		C250.2,461.2,258.5,466,255.1,475.4z"/>
</g>
</svg>
