<?xml version="1.0" encoding="utf-8"?>
<!-- Generator: Adobe Illustrator 22.1.0, SVG Export Plug-In . SVG Version: 6.00 Build 0)  -->
<svg version="1.1" id="Calque_1" xmlns="http://www.w3.org/2000/svg" xmlns:xlink="http://www.w3.org/1999/xlink" x="0px" y="0px"
	 viewBox="0 0 713 710" style="enable-background:new 0 0 713 710;" xml:space="preserve">
<style type="text/css">
	.st0{fill:#FFFFFF;}
	.st1{fill:#FEFEFE;}
	.st2{fill:#FDFDFD;}
	.st3{fill:#EFEFEF;}
	.st4{fill:#040404;}
	.st5{fill:#050505;}
	.st6{fill:#030303;}
</style>
<circle class="st0" cx="358" cy="355" r="344"/>
<g>
	<path d="M355.4,135.6c22.7,0.1,41.9,3,59.5,11.2c21.1,9.8,40.7,22.3,55.7,40.5c25.3,30.7,38.4,65.8,37.5,105.8
		c-0.8,34.6-12.9,64.8-35,91.4c-9.4,11.3-19.5,22.1-29,33.3c-9.5,11.2-14.4,23.6-13.9,38.5c0.6,19.5,0.2,38.9,0.1,58.4
		c-0.1,20.4-13.8,34.2-34.3,34.2c-3.5,0-5.4,0.3-6.5,4.6c-3.5,13.4-17.1,22.8-31.5,22.4c-13.9-0.3-27-10.3-30.1-23.6
		c-0.7-3.2-2-3.7-4.6-3.4c-18.1,1.8-36.9-12.4-35.9-36.5c0.8-19.8,0-39.7,0.2-59.5c0.1-11.3-3.3-21.2-10-30
		c-4.6-6-9.6-11.7-14.8-17.2c-9-9.5-17.2-19.8-25-30.3c-22.2-29.8-30.6-63.4-27.4-100.1c2.8-30.9,13.9-58.3,33-82.9
		c12.9-16.6,29.1-28.4,46.9-39C311.5,140.7,334.5,136.3,355.4,135.6z"/>
	<path class="st1" d="M371.2,150.6c32,2.4,59.5,15.1,82.1,37.5c10.9,10.8,20.6,23.1,27,37.3c18.4,40.8,21.1,81.6,1.1,122.9
		c-4.9,10.2-11.3,19.1-18.5,27.7c-9.3,11-18.8,21.7-28.2,32.6c-10.9,12.6-18.1,26.8-17.5,44c0.1,2.6-0.6,3.4-3.3,3.3
		c-8.6-0.2-17.3-0.2-26,0c-2.6,0-3.3-0.7-3.3-3.3c0.1-42.7,0.1-85.4,0-128.1c0-2.1,0.6-3.1,2.7-3.9c10.8-4.1,16-12.7,16.7-23.6
		c0.7-11.1-5-18.9-14.5-24.6c-11.1-6.5-18-4-27.8,4c-2.5,2.1-3.5,2-6,0c-4.5-3.6-9-7.4-15.4-7.6c-14.5-0.6-33,17-25.3,36.1
		c2.8,7,6.8,12.8,14.1,15.3c3.4,1.2,3.6,3.1,3.6,6c-0.1,34.1,0,68.1,0,102.2c0,7.9-0.1,15.9,0,23.8c0,2.4,0,4-3.3,3.9
		c-8.6-0.3-17.3-0.2-25.9,0c-2.7,0.1-3.4-0.8-3.3-3.4c0.6-17.4-6.7-31.7-17.8-44.4c-12-13.7-24.3-27-35.2-41.5
		c-19.9-26.8-27.2-57.1-24.2-90.1c3-32.6,15.6-60.8,38.1-84.9c23.2-24.8,51.7-38,85.2-41c3.5-2.1,7.8,0.3,11.3-1.8
		c0.7,0,1.4,0,2.1,0C363.4,150.9,367.7,148.5,371.2,150.6z"/>
	<path class="st1" d="M345.9,381.8c0-22.2-0.2-44.3,0.1-66.5c0.1-5-0.6-7.2-6.5-6.8c-7,0.4-12.2-4.7-13-11.2
		c-0.8-6.3,3.1-12.2,9.3-14c6.5-2,13.6,1.3,15.5,8c1,3.7,2.5,4.6,6.1,4.5c4.6,0,8,0.1,9.6-5.9c1.5-5.8,8.9-8.4,14.8-6.7
		c6,1.7,9.9,7.3,9.5,13.4c-0.5,6.3-5.4,11.3-11.9,12c-7.5,0.8-7.5,0.8-7.5,8.2c0,44.7-0.1,89.4,0.1,134c0,3.9-0.7,5.4-4.9,5
		c-5.4-0.4-10.8-0.4-16.2,0c-3.9,0.3-5.1-0.7-5.1-4.9C346,427.9,345.9,404.9,345.9,381.8z"/>
	<path class="st1" d="M415.6,522.8c-2.9,8.1-8.9,12.8-17.2,12.9c-26.3,0.2-52.6,0.2-78.9,0c-8.2-0.1-14.1-4.4-17.7-12.9
		c7.3,0,14-0.1,20.8,0.1c2.9,0.1,4-0.5,4-3.7c0-10.4,0.2-10.4-10.3-10.4c-2.2,0-4.3,0-6.5,0c-10.1,0-10,0-9.4-10.2
		c0.2-2.6,1.1-2.9,3.2-2.8c6.3,0.1,12.6-0.1,18.9,0.1c2.9,0.1,4-0.6,4-3.8c0-9.3,0.2-9.3-9.2-9.3c-2.3,0-4.7,0-7,0
		c-10.6,0-11.3-0.9-9.9-11.8c0.4-3.1,2.3-2.2,3.8-2.2c8.8-0.1,17.7,0,26.5,0c27.2,0,54.4,0.1,81.7-0.1c3.9,0,5.2,0.7,5,4.9
		c-0.3,9.2-0.1,9.2-9.3,9.2c-21.1,0-42.2,0.1-63.3-0.1c-4.4-0.1-5.8,0.9-5.6,5.5c0.4,7.6,0.1,7.6,7.7,7.6c21.6,0,43.3,0.1,64.9-0.1
		c4.4-0.1,5.8,0.9,5.6,5.5c-0.4,7.6-0.1,7.6-7.7,7.6c-22,0-44,0.1-66-0.1c-3.5,0-4.5,0.8-4.4,4.4c0.2,9.7,0,9.7,9.8,9.7
		C371.1,522.8,393.1,522.8,415.6,522.8z"/>
	<path class="st2" d="M341.3,548.9c11.7,0,23.3,0,34.9,0c-1,7.8-8,13.7-16.8,13.9C350.2,563.1,342.7,557.3,341.3,548.9z"/>
	<path class="st3" d="M357.8,148.8c-3.2,4.1-7.5,1.3-11.3,1.8C349.8,147.1,354,149.2,357.8,148.8z"/>
	<path class="st3" d="M371.2,150.6c-3.8-0.5-8.1,2.3-11.3-1.8C363.7,149.2,367.9,147.1,371.2,150.6z"/>
	<path class="st4" d="M297.2,190.5c0.2-3.5,2-6.4,6.4-6.3c4.4,0,6.5,2.7,6.5,6.9c0,4.1-2.3,6.4-6.2,6.9
		C300.4,198.4,297.3,195.1,297.2,190.5z"/>
	<path class="st4" d="M420.4,189.8c0.1,5.1-2.7,8.4-6.4,8.2c-3.9-0.3-6.4-2.4-6.5-6.5c-0.1-4.2,1.7-7.1,6.1-7.3
		C418.1,183.9,420.2,186.6,420.4,189.8z"/>
	<path class="st4" d="M460.7,233.9c-0.3,3.1-2.4,5.5-6.5,5.5c-4.1-0.1-6.2-2.7-6.3-6.6c-0.1-4.4,2.9-7.5,6.8-7.3
		C458.4,225.7,460.8,228.7,460.7,233.9z"/>
	<path class="st4" d="M269.8,233c-0.4,3.5-2.2,6.2-6.3,6.3c-4,0.1-6.4-2.2-6.6-6.3c-0.2-4.1,1.4-7.1,5.8-7.6
		C266.6,225,269.7,228.2,269.8,233z"/>
	<path class="st4" d="M256.9,345c0.2-3.4,2.3-5.8,6.3-5.9c4-0.1,6.6,2.5,6.5,6.3c-0.2,3.4-1.4,7.2-6,7.6
		C260.1,353.3,257,349.8,256.9,345z"/>
	<path class="st5" d="M460.7,345.2c-0.2,4.7-3.4,8.2-6.8,7.8c-4.6-0.5-5.8-4.2-5.9-7.6c-0.1-3.8,2.5-6.4,6.5-6.2
		C458.5,339.2,460.6,341.7,460.7,345.2z"/>
	<path class="st5" d="M280.6,375.9c-3.9-0.6-6.2-2.7-6.1-6.7c0.1-4.1,2.7-6.3,6.6-6.2c3.9,0.1,6.3,2.7,6.2,6.6
		C287.1,373.5,284.6,375.6,280.6,375.9z"/>
	<path class="st5" d="M274.3,208.9c0.4-3.8,2.5-6.3,6.5-6.2c4.1,0,6.4,2.5,6.4,6.4c0,3.9-2.5,6.4-6.4,6.4
		C276.9,215.4,274.7,213,274.3,208.9z"/>
	<path class="st5" d="M443.3,208.8c-0.3,4.2-2.5,6.6-6.4,6.7c-3.9,0.1-6.5-2.4-6.5-6.3c0-3.9,2.3-6.4,6.3-6.4
		C440.8,202.6,442.8,205.1,443.3,208.8z"/>
	<path class="st5" d="M443.3,369.9c-0.7,3.7-2.8,6-6.8,5.8c-4-0.2-6.3-2.8-6-6.7c0.2-3.9,2.8-6.3,6.8-6.1
		C441.1,363.2,443.2,365.7,443.3,369.9z"/>
	<path class="st4" d="M393.7,179.1c-0.1,4.1-2.2,6.6-6.3,6.7c-4.1,0.1-6.5-2.4-6.5-6.4c0-3.6,2.2-6.2,6-6.3
		C391,172.9,393.4,175,393.7,179.1z"/>
	<path class="st6" d="M365.4,175.7c-0.7,4-2.8,6.5-6.8,6.3c-3.9-0.2-6.3-2.7-6.1-6.6c0.2-4,2.7-6.3,6.6-6.1
		C363.1,169.4,364.9,172.1,365.4,175.7z"/>
	<path class="st6" d="M248.5,282.7c3.9,0.5,6.4,2.5,6.4,6.6c0,4-2.5,6.4-6.4,6.4c-4,0-6.4-2.4-6.4-6.4
		C242.1,285.2,244.6,283.2,248.5,282.7z"/>
	<path class="st6" d="M469.2,295.8c-4.1-0.7-6.6-2.7-6.5-6.7c0.1-4,2.6-6.3,6.5-6.2c4,0.1,6.3,2.6,6.2,6.5
		C475.5,293.4,472.8,295.3,469.2,295.8z"/>
	<path class="st6" d="M330.3,185.8c-3.9-0.3-6.3-2.3-6.3-6.5c0-4.2,2.5-6.3,6.5-6.3c3.8,0,6.1,2.5,6.2,6.1
		C336.8,183.1,334.4,185.5,330.3,185.8z"/>
	<path class="st6" d="M245.8,259.6c0.3-3.7,2.2-6.3,6.4-6.3c3.8,0,6.1,2,6.4,5.9c0.3,4.1-2,6.6-6,6.8
		C248.6,266.2,246.3,263.8,245.8,259.6z"/>
	<path class="st4" d="M251.4,325.2c-4-0.8-5.9-3.3-5.5-7.3c0.4-3.9,3.2-5.7,6.8-5.4c3.9,0.3,6.2,2.9,5.8,7
		C258.1,323.6,255.5,325.3,251.4,325.2z"/>
	<path class="st4" d="M465.3,312.4c4.2,0.5,6.6,2.7,6.4,6.7c-0.2,4-2.7,6.2-6.8,6c-3.9-0.2-5.9-2.6-5.9-6.3
		C459.1,314.7,461.6,312.7,465.3,312.4z"/>
	<path class="st6" d="M465.5,253.2c4,0.2,6.3,2.5,6.3,6.5c0,3.8-2.4,6.1-6,6.3c-3.9,0.2-6.5-2.1-6.6-6.2
		C459,255.7,461.3,253.5,465.5,253.2z"/>
</g>
</svg>
