<?xml version="1.0" encoding="utf-8"?>
<!-- Generator: Adobe Illustrator 22.1.0, SVG Export Plug-In . SVG Version: 6.00 Build 0)  -->
<svg version="1.1" id="Calque_1" xmlns="http://www.w3.org/2000/svg" xmlns:xlink="http://www.w3.org/1999/xlink" x="0px" y="0px"
	 viewBox="0 0 50 50" style="enable-background:new 0 0 50 50;" xml:space="preserve">
<style type="text/css">
	.st0{display:none;fill:#FF5729;}
	.st1{fill:#FFFFFF;}
	.st2{fill:#FF5729;}
	.st3{fill:#B3B3B3;}
	.st4{fill:#454445;}
</style>
<rect class="st0" width="50" height="50"/>
<g>
	<circle class="st1" cx="25" cy="25" r="24"/>
	<g>
		<path class="st2" d="M34.5,14.4c0.4,0.8,0.8,1.7,1.1,2.7l5,0c-2.1-3.3-5.5-5.7-9.4-6.4C32.4,11.4,33.6,12.7,34.5,14.4z"/>
		<path class="st2" d="M29.1,12v5l4.3,0c-0.2-0.6-0.5-1.2-0.7-1.7C32,14,30.8,12.4,29.1,12z"/>
		<path class="st2" d="M36,19.1c0.3,1.4,0.5,3,0.5,4.6h6.2c-0.1-1.6-0.5-3.2-1.1-4.6L36,19.1z"/>
		<path class="st2" d="M41.6,30.4c0.6-1.4,1-3,1.1-4.6h-6.2c-0.1,1.6-0.2,3.2-0.5,4.6L41.6,30.4z"/>
		<path class="st2" d="M29.1,23.8h5.4c-0.1-1.6-0.3-3.2-0.6-4.6l-4.9,0V23.8z"/>
		<path class="st2" d="M25.2,10.8c-0.4,0.1-0.7,0.2-1,0.3c0.1,0.1,0.2,0.1,0.3,0.2C24.6,11.1,24.9,11,25.2,10.8z"/>
		<path class="st2" d="M35.5,32.4c-1,3.1-2.5,5.3-4.5,6.5c4-0.7,7.4-3.1,9.5-6.4L35.5,32.4z"/>
		<path class="st2" d="M32.6,34.2c0.3-0.6,0.6-1.2,0.8-1.8l-4.3,0v5.1C30.4,37.1,31.6,36,32.6,34.2z"/>
		<path class="st2" d="M27.1,15.8v-3.6c-0.5,0.2-0.9,0.4-1.4,0.7C26.3,13.8,26.7,14.7,27.1,15.8z"/>
		<path class="st2" d="M34.5,25.8h-5.4v4.6l4.8,0C34.3,29,34.5,27.4,34.5,25.8z"/>
	</g>
	<g>
		<path class="st3" d="M16.6,11.5c0.7,0.1,8.1,1.1,8.1,12.3c0,10.3-0.2,11.6-0.2,11.6s-0.8,2.2-3.6,2.6l2.2,0.4l2-1l0.7-2L26,21.3
			l0-1.1l-0.7-3.1l-1.6-3l-3.3-2.2l-1.5-0.5l-1.5,0"/>
		<path class="st3" d="M18.8,25.2c0,0,2.2,3,0,6.1c0.4,0,1.8-0.4,1.8-0.4l0.6-3.7l-1-1.6L18.8,25.2z"/>
		<path class="st3" d="M20.1,15.8c0.1,0.1,2.1,2.2,0.1,5.2c0.4,0,1.4-0.3,1.4-0.3l0.3-3.3l-0.7-1.4L20.1,15.8z"/>
		<path class="st3" d="M15.9,15.8c0.1,0.1,2.1,2.2,0.1,5.2c0.4,0,1.4-0.3,1.4-0.3l0.3-3.3L17,16.1L15.9,15.8z"/>
	</g>
	<path class="st4" d="M19.1,39.4c-0.6,0-1.3-0.2-2.1-0.5c-0.2,0.1-0.4,0.2-0.6,0.3c-0.9,0.4-2.1,0.3-3.3-0.3c0,0-0.1,0-0.1-0.1
		c-0.9,0.6-2.1,0.6-3.5,0.1c0,0-0.1,0-0.1,0c-0.6-0.3-2-1.1-2.1-2c-0.1-0.4,0.1-0.7,0.3-1c0.1-0.1,0.3-0.2,0.5-0.2
		c0.1,0,0.2,0,0.2,0c0.4,0,0.8,0,0.9-0.1c0.1-0.1,0.2-0.4,0.2-0.6V21.2c0-0.4-0.2-5.1,2.6-8.1c1.5-1.6,3.7-2.5,6.3-2.5
		c3.6,0,6.2,2.4,7.7,6.9c1.1,3.3,1.1,6.5,1.1,6.6c0,0,0,0,0,0L27,34.3l0,0.5c0,0.3-0.2,2.5-1.8,3.7c-1.1,0.8-2.5,0.9-4.2,0.3
		C20.5,39.2,19.9,39.4,19.1,39.4z M18.1,37.7c1.5,0.5,2.3-0.2,2.6-0.9c0.2-0.3,0.6-0.5,0.9-0.4c0.4,0.1,0.5,0.5,0.5,0.9l-0.1,0.2
		c0.9,0.2,1.6,0.1,2.1-0.2c1.1-0.7,1.3-2.4,1.3-2.6v-0.5c0,0,0,0,0,0l0.2-10.1c0-0.5-0.4-12-7.4-12c-2.2,0-4,0.7-5.2,2
		c-2.5,2.6-2.2,7-2.2,7c0,0,0,0,0,0v13.6c0,1.6-0.8,2-1.7,2.2c0.2,0.2,0.5,0.4,0.8,0.5c1.7,0.6,2.7,0.1,3.4-1.7
		c0.1-0.4,0.6-0.6,0.9-0.4c0.4,0.1,0.6,0.6,0.5,0.9l-0.5,1.4c0.6,0.2,1.1,0.2,1.5,0.1c0.5-0.2,0.8-0.6,1.1-1.3
		c0.1-0.4,0.5-0.6,0.9-0.5c0.4,0.1,0.6,0.5,0.5,0.9L18.1,37.7z M25.5,34.8C25.5,34.8,25.5,34.8,25.5,34.8
		C25.5,34.8,25.5,34.8,25.5,34.8L25.5,34.8z M19.4,32.3c-1.6,0-2.9-1.7-2.9-4c0-2.2,1.3-4,2.9-4c1.6,0,2.9,1.7,2.9,4
		C22.3,30.5,21,32.3,19.4,32.3z M19.4,25.8c-0.7,0-1.4,1-1.4,2.5s0.7,2.5,1.4,2.5s1.4-1,1.4-2.5S20.1,25.8,19.4,25.8z M20.9,22.2
		c-1.1,0-2-1.5-2-3.5c0-2.1,0.8-3.5,2-3.5c1.1,0,2,1.5,2,3.5C22.9,20.7,22.1,22.2,20.9,22.2z M20.9,16.7c-0.2,0.2-0.5,0.9-0.5,2
		s0.3,1.8,0.5,2c0.2-0.2,0.5-0.9,0.5-2S21.1,16.9,20.9,16.7z M16.7,22.2c-1.1,0-2-1.5-2-3.5c0-2.1,0.8-3.5,2-3.5c1.1,0,2,1.5,2,3.5
		C18.7,20.7,17.9,22.2,16.7,22.2z M16.7,16.7c-0.2,0.2-0.5,0.9-0.5,2s0.3,1.8,0.5,2c0.2-0.2,0.5-0.9,0.5-2
		C17.2,17.6,16.9,16.9,16.7,16.7z"/>
</g>
</svg>
