<?xml version="1.0" encoding="utf-8"?>
<!-- Generator: Adobe Illustrator 22.1.0, SVG Export Plug-In . SVG Version: 6.00 Build 0)  -->
<svg version="1.1" id="Calque_1" xmlns="http://www.w3.org/2000/svg" xmlns:xlink="http://www.w3.org/1999/xlink" x="0px" y="0px"
	 viewBox="0 0 139 50" style="enable-background:new 0 0 139 50;" xml:space="preserve">
<style type="text/css">
	.st0{fill:#FF5729;}
	.st1{fill:#FFFFFF;}
	.st2{fill:#B3B3B3;}
	.st3{fill:#454445;}
	.st4{fill:#F5F2DC;}
	.st5{fill:#009494;}
</style>
<g>
	<g>
		<path class="st0" d="M31.5,15.8c0.4,0.8,0.7,1.6,1,2.5l4.7,0c-1.9-3.1-5.1-5.3-8.8-6C29.6,13,30.6,14.2,31.5,15.8z"/>
		<path class="st0" d="M26.5,13.6v4.7l4,0c-0.2-0.6-0.4-1.1-0.7-1.6C29.1,15.4,28,13.9,26.5,13.6z"/>
		<path class="st0" d="M32.9,20.2c0.3,1.4,0.4,2.8,0.5,4.3h5.8c-0.1-1.5-0.5-3-1-4.3L32.9,20.2z"/>
		<path class="st0" d="M38.2,30.8c0.6-1.3,0.9-2.8,1-4.3h-5.8c0,1.5-0.2,3-0.5,4.3L38.2,30.8z"/>
		<path class="st0" d="M26.5,24.5h5.1c-0.1-1.5-0.2-3-0.5-4.3l-4.5,0V24.5z"/>
		<path class="st0" d="M22.7,12.4c-0.3,0.1-0.7,0.2-1,0.3c0.1,0.1,0.2,0.1,0.3,0.2C22.3,12.7,22.5,12.6,22.7,12.4z"/>
		<path class="st0" d="M32.4,32.6c-0.9,2.9-2.4,5-4.2,6.1c3.8-0.7,7-2.9,8.9-6L32.4,32.6z"/>
		<path class="st0" d="M29.7,34.3c0.3-0.5,0.5-1.1,0.7-1.7l-4,0v4.8C27.7,37,28.8,36,29.7,34.3z"/>
		<path class="st0" d="M24.6,17v-3.4c-0.4,0.1-0.9,0.4-1.3,0.7C23.8,15.2,24.2,16.1,24.6,17z"/>
		<path class="st0" d="M31.5,26.4h-5.1v4.3l4.5,0C31.3,29.4,31.5,28,31.5,26.4z"/>
	</g>
	<path class="st1" d="M15.3,38c1.5,0.5,3.3-0.2,3.7-0.9c0.2-0.3,0.2-0.2,0.5,0c0.3,0.1,0.1,0.4,0,0.8l0.8,0c0.9,0.2,1.6,0.1,2.1-0.2
		c1.1-0.7,1.2-2.4,1.2-2.5v-0.5c0,0,0,0,0,0l0.2-9.9c0-0.5-0.4-11.8-7.3-11.8c-2.2,0-3.9,0.7-5.1,2c-2.4,2.6-2.2,6.9-2.2,6.9
		c0,0,0,0,0,0v13.4c0,1.6-1.1,1.4-2,1.5c0.2,0.2,0.8,1,1.1,1.1c1.7,0.6,2.7,0,3.3-1.7c0.1-0.4,0.6-0.6,0.9-0.4
		c0.4,0.1,0.3,0.6,0.2,1L12.1,38c0.6,0.2,1.7,0.2,2.1,0c0.4-0.2,0.8-0.6,1.1-1.3c0.1-0.4,0.5-0.6,0.9-0.4c0.4,0.1,0.1,0.6,0,1
		L15.3,38z"/>
	<g>
		<path class="st2" d="M14.7,13.1c0.7,0.1,7.6,1,7.6,11.5c0,9.6-0.2,10.9-0.2,10.9s-0.8,2.1-3.4,2.5l2,0.3l1.9-0.9l0.7-1.9l0.3-13.2
			l0-1l-0.7-2.9l-1.5-2.8l-3.1-2.1L16.9,13l-1.4,0"/>
		<path class="st2" d="M16.8,25.9c0,0,2,2.8,0,5.7c0.4,0,1.7-0.4,1.7-0.4l0.6-3.5l-1-1.5L16.8,25.9z"/>
		<path class="st2" d="M18,17.1c0.1,0.1,2,2.1,0.1,4.9c0.4,0,1.4-0.3,1.4-0.3l0.3-3.1l-0.6-1.3L18,17.1z"/>
		<path class="st2" d="M14,17.1c0.1,0.1,2,2.1,0.1,4.9c0.4,0,1.4-0.3,1.4-0.3l0.3-3.1l-0.6-1.3L14,17.1z"/>
	</g>
	<path class="st3" d="M17.1,39.2c-0.6,0-1.3-0.2-2-0.5c-0.2,0.1-0.3,0.2-0.5,0.3c-0.9,0.4-1.9,0.3-3.1-0.3c0,0-0.1,0-0.1,0
		c-0.9,0.5-2,0.6-3.3,0.1c0,0-0.1,0-0.1,0c-0.5-0.3-1.8-1-2-1.9c-0.1-0.3,0.1-0.7,0.3-0.9c0.1-0.1,0.3-0.2,0.4-0.2
		c0.1,0,0.2,0,0.2,0c0.3,0,0.7,0,0.9-0.1C8,35.4,8,35.1,8,34.9V22.2c0-0.4-0.2-4.8,2.5-7.6c1.4-1.5,3.4-2.3,5.9-2.3
		c3.3,0,5.8,2.2,7.2,6.5c1,3.1,1.1,6.1,1.1,6.2c0,0,0,0,0,0l-0.2,9.5l0,0.5c0,0.2-0.2,2.3-1.7,3.4c-1,0.7-2.3,0.8-3.9,0.3
		C18.4,39,17.8,39.2,17.1,39.2z M16.2,37.6c1.4,0.5,2.1-0.2,2.5-0.9c0.2-0.3,0.5-0.5,0.9-0.3c0.3,0.1,0.5,0.5,0.4,0.8l-0.1,0.2
		c0.8,0.2,1.5,0.1,2-0.2c1-0.7,1.2-2.3,1.2-2.4v-0.5c0,0,0,0,0,0l0.2-9.4c0-0.4-0.4-11.3-6.9-11.3c-2.1,0-3.7,0.6-4.9,1.9
		c-2.3,2.5-2.1,6.6-2.1,6.6c0,0,0,0,0,0v12.8c0,1.5-0.8,1.9-1.6,2c0.2,0.2,0.5,0.3,0.8,0.5c1.6,0.5,2.6,0,3.2-1.6
		c0.1-0.4,0.5-0.5,0.9-0.4c0.4,0.1,0.5,0.5,0.4,0.9l-0.5,1.3c0.6,0.2,1.1,0.2,1.4,0.1c0.4-0.2,0.8-0.6,1-1.3
		c0.1-0.3,0.5-0.5,0.9-0.4c0.4,0.1,0.6,0.5,0.5,0.8L16.2,37.6z M23.1,34.9C23.1,34.9,23.1,34.9,23.1,34.9
		C23.1,34.9,23.1,34.9,23.1,34.9L23.1,34.9z M17.4,32.5c-1.5,0-2.7-1.6-2.7-3.7c0-2.1,1.2-3.7,2.7-3.7c1.5,0,2.7,1.6,2.7,3.7
		C20.1,30.9,18.9,32.5,17.4,32.5z M17.4,26.5c-0.6,0-1.3,1-1.3,2.3s0.7,2.3,1.3,2.3s1.3-1,1.3-2.3S18,26.5,17.4,26.5z M18.8,23.1
		c-1.1,0-1.8-1.4-1.8-3.3c0-1.9,0.8-3.3,1.8-3.3c1.1,0,1.8,1.4,1.8,3.3C20.6,21.7,19.9,23.1,18.8,23.1z M18.8,17.9
		c-0.2,0.2-0.4,0.9-0.4,1.9s0.3,1.7,0.4,1.9c0.2-0.2,0.4-0.9,0.4-1.9S19,18.1,18.8,17.9z M14.8,23.1c-1.1,0-1.8-1.4-1.8-3.3
		c0-1.9,0.8-3.3,1.8-3.3c1.1,0,1.8,1.4,1.8,3.3C16.7,21.7,15.9,23.1,14.8,23.1z M14.8,17.9c-0.2,0.2-0.4,0.9-0.4,1.9
		s0.3,1.7,0.4,1.9c0.2-0.2,0.4-0.9,0.4-1.9C15.3,18.7,15,18.1,14.8,17.9z"/>
</g>
<g>
	<path class="st4" d="M49.2,17h4.1l1.4,5.3l1.4-5.3h4.1l-2.7,8.2l1.2,3.6L62.3,17h4.9l-6.4,17.2H57l-2.3-6.2l-2.3,6.2h-3.7L42.3,17
		h4.8l3.5,11.8l1.1-3.6L49.2,17z"/>
	<path class="st4" d="M79.9,30.1v4.1H68.3V17h11.4v4.1h-6.9v2.4h5.9v3.8h-5.9v2.7H79.9z"/>
	<path class="st4" d="M96,29.8c0,0.8-0.2,1.4-0.5,2c-0.3,0.6-0.7,1-1.3,1.4c-0.5,0.4-1.2,0.6-1.9,0.8c-0.7,0.2-1.5,0.3-2.3,0.3h-8
		V17h9.4c0.6,0,1.1,0.1,1.5,0.4c0.5,0.3,0.8,0.6,1.2,1c0.3,0.4,0.6,0.9,0.7,1.4c0.2,0.5,0.3,1.1,0.3,1.6c0,0.8-0.2,1.6-0.6,2.3
		c-0.4,0.7-1,1.3-1.8,1.7c0.9,0.3,1.7,0.8,2.2,1.5C95.7,27.6,96,28.6,96,29.8z M86.6,21v2.6h3c0.3,0,0.6-0.1,0.8-0.3
		c0.3-0.2,0.4-0.5,0.4-1.1c0-0.5-0.1-0.8-0.3-1c-0.2-0.2-0.5-0.3-0.8-0.3H86.6z M91.4,28.8c0-0.4-0.1-0.8-0.3-1.1
		c-0.2-0.3-0.5-0.4-0.8-0.4h-3.7v2.9h3.5c0.4,0,0.7-0.1,0.9-0.4C91.3,29.6,91.4,29.3,91.4,28.8z"/>
	<path class="st5" d="M111.9,29.8c0,0.8-0.2,1.4-0.5,2c-0.3,0.6-0.7,1-1.3,1.4c-0.5,0.4-1.2,0.6-1.9,0.8c-0.7,0.2-1.5,0.3-2.3,0.3
		h-8V17h9.4c0.6,0,1.1,0.1,1.5,0.4c0.5,0.3,0.8,0.6,1.2,1c0.3,0.4,0.6,0.9,0.7,1.4c0.2,0.5,0.3,1.1,0.3,1.6c0,0.8-0.2,1.6-0.6,2.3
		c-0.4,0.7-1,1.3-1.8,1.7c0.9,0.3,1.7,0.8,2.2,1.5C111.6,27.6,111.9,28.6,111.9,29.8z M102.5,21v2.6h3c0.3,0,0.6-0.1,0.8-0.3
		c0.3-0.2,0.4-0.5,0.4-1.1c0-0.5-0.1-0.8-0.3-1c-0.2-0.2-0.5-0.3-0.8-0.3H102.5z M107.3,28.8c0-0.4-0.1-0.8-0.3-1.1
		c-0.2-0.3-0.5-0.4-0.8-0.4h-3.7v2.9h3.5c0.4,0,0.7-0.1,0.9-0.4C107.2,29.6,107.3,29.3,107.3,28.8z"/>
	<path class="st5" d="M125.5,30.1v4.1h-11.6V17h11.4v4.1h-6.9v2.4h5.9v3.8h-5.9v2.7H125.5z"/>
	<path class="st0" d="M129.1,34.5c-1.1,0-1.9-0.8-1.9-2c0-1.2,0.8-2,1.9-2c1.1,0,1.9,0.8,1.9,2C131,33.7,130.2,34.5,129.1,34.5z"/>
</g>
</svg>
