<?xml version="1.0" encoding="utf-8"?>
<!-- Generator: Adobe Illustrator 22.1.0, SVG Export Plug-In . SVG Version: 6.00 Build 0)  -->
<svg version="1.1" id="Calque_1" xmlns="http://www.w3.org/2000/svg" xmlns:xlink="http://www.w3.org/1999/xlink" x="0px" y="0px"
	 viewBox="0 0 100 50" style="enable-background:new 0 0 100 50;" xml:space="preserve">
<style type="text/css">
	.st0{fill:#F5F2DC;}
	.st1{fill:#009494;}
</style>
<g>
	<path class="st0" d="M13,18h4.1l1.4,5.3L20,18h4.1l-2.7,8.2l1.2,3.6L26.1,18H31l-6.4,17.2h-3.7l-2.3-6.2l-2.3,6.2h-3.7L6.1,18H11
		l3.5,11.8l1.1-3.6L13,18z"/>
	<path class="st0" d="M43.8,31.1v4.1H32.2V18h11.4v4.1h-6.9v2.4h5.9v3.8h-5.9v2.7H43.8z"/>
	<path class="st0" d="M59.9,30.8c0,0.8-0.2,1.4-0.5,2c-0.3,0.6-0.7,1-1.3,1.4c-0.5,0.4-1.2,0.6-1.9,0.8c-0.7,0.2-1.5,0.3-2.3,0.3h-8
		V18h9.5c0.6,0,1.1,0.1,1.5,0.4c0.5,0.3,0.9,0.6,1.2,1c0.3,0.4,0.6,0.9,0.7,1.4c0.2,0.5,0.3,1.1,0.3,1.6c0,0.8-0.2,1.6-0.6,2.3
		c-0.4,0.7-1,1.3-1.8,1.7c0.9,0.3,1.7,0.8,2.2,1.5C59.6,28.6,59.9,29.6,59.9,30.8z M50.5,22v2.6h3.1c0.3,0,0.6-0.1,0.8-0.3
		c0.3-0.2,0.4-0.5,0.4-1.1c0-0.5-0.1-0.8-0.3-1C54.2,22.1,54,22,53.7,22H50.5z M55.3,29.9c0-0.4-0.1-0.8-0.3-1.1
		c-0.2-0.3-0.5-0.4-0.8-0.4h-3.7v2.9H54c0.4,0,0.7-0.1,0.9-0.4C55.2,30.7,55.3,30.3,55.3,29.9z"/>
	<path class="st1" d="M75.8,30.8c0,0.8-0.2,1.4-0.5,2c-0.3,0.6-0.7,1-1.3,1.4c-0.5,0.4-1.2,0.6-1.9,0.8c-0.7,0.2-1.5,0.3-2.3,0.3h-8
		V18h9.5c0.6,0,1.1,0.1,1.5,0.4c0.5,0.3,0.9,0.6,1.2,1c0.3,0.4,0.6,0.9,0.7,1.4c0.2,0.5,0.3,1.1,0.3,1.6c0,0.8-0.2,1.6-0.6,2.3
		c-0.4,0.7-1,1.3-1.8,1.7c0.9,0.3,1.7,0.8,2.2,1.5C75.6,28.6,75.8,29.6,75.8,30.8z M66.4,22v2.6h3.1c0.3,0,0.6-0.1,0.8-0.3
		c0.3-0.2,0.4-0.5,0.4-1.1c0-0.5-0.1-0.8-0.3-1c-0.2-0.2-0.5-0.3-0.8-0.3H66.4z M71.3,29.9c0-0.4-0.1-0.8-0.3-1.1
		c-0.2-0.3-0.5-0.4-0.8-0.4h-3.7v2.9H70c0.4,0,0.7-0.1,0.9-0.4C71.2,30.7,71.3,30.3,71.3,29.9z"/>
	<path class="st1" d="M89.5,31.1v4.1H77.9V18h11.4v4.1h-6.9v2.4h5.9v3.8h-5.9v2.7H89.5z"/>
	<path class="st0" d="M93.1,35.5c-1.1,0-1.9-0.9-1.9-2c0-1.2,0.8-2,1.9-2c1.1,0,1.9,0.9,1.9,2C95,34.7,94.2,35.5,93.1,35.5z"/>
</g>
</svg>
